<?xml version="1.0" encoding="UTF-8" standalone="no"?><!DOCTYPE svg PUBLIC "-//W3C//DTD SVG 1.1//EN" "http://www.w3.org/Graphics/SVG/1.1/DTD/svg11.dtd"><svg width="100%" height="100%" viewBox="0 0 35 35" version="1.1" xmlns="http://www.w3.org/2000/svg" xmlns:xlink="http://www.w3.org/1999/xlink" xml:space="preserve" style="fill-rule:evenodd;clip-rule:evenodd;stroke-linejoin:round;stroke-miterlimit:1.41421;"><path d="M17.32,0c9.56,0 17.321,7.761 17.321,17.32c0,9.56 -7.761,17.321 -17.321,17.321c-9.559,0 -17.32,-7.761 -17.32,-17.321c0,-9.559 7.761,-17.32 17.32,-17.32Zm5.934,28.748l0,-9.385c-0.507,0 -1.015,0 -1.53,0c0,2.624 0,5.24 -0.002,7.864c-3.953,0 -7.893,0 -11.839,0c0,-2.627 0,-5.244 0,-7.864c-0.515,0 -1.022,0 -1.53,0c0,3.131 0,6.255 0,9.385l14.901,0Zm-3.072,-4.973l-9.008,0l0,1.917c3.008,0 6.007,0 9.008,0l0,-1.917Zm0.226,-2.477c-3,-0.276 -5.989,-0.553 -8.985,-0.828c-0.06,0.645 -0.119,1.279 -0.179,1.92c3,0.276 5.99,0.552 8.986,0.828c0.06,-0.646 0.118,-1.28 0.178,-1.92Zm0.592,-2.514c-2.91,-0.784 -5.808,-1.561 -8.714,-2.343c-0.168,0.621 -0.333,1.237 -0.501,1.862c2.908,0.782 5.809,1.56 8.714,2.342c0.17,-0.625 0.335,-1.241 0.501,-1.861Zm1.138,-2.205c-2.597,-1.532 -5.182,-3.056 -7.772,-4.584c-0.329,0.557 -0.652,1.105 -0.98,1.66c2.59,1.528 5.177,3.053 7.773,4.584c0.329,-0.559 0.654,-1.108 0.979,-1.66Zm-4.772,-7.718c1.697,2.489 3.39,4.97 5.085,7.455c0.535,-0.366 1.062,-0.726 1.592,-1.087c-1.699,-2.491 -3.391,-4.97 -5.084,-7.454c-0.533,0.363 -1.059,0.721 -1.593,1.086Zm7.377,-2.968c-0.636,0.111 -1.26,0.22 -1.899,0.33c0.514,2.969 1.03,5.925 1.544,8.89c0.641,-0.111 1.268,-0.221 1.9,-0.33c-0.516,-2.972 -1.03,-5.929 -1.545,-8.89Z"/></svg>