<?xml version="1.0" encoding="UTF-8" standalone="no"?><!DOCTYPE svg PUBLIC "-//W3C//DTD SVG 1.1//EN" "http://www.w3.org/Graphics/SVG/1.1/DTD/svg11.dtd"><svg width="100%" height="100%" viewBox="0 0 120 80" version="1.1" xmlns="http://www.w3.org/2000/svg" xmlns:xlink="http://www.w3.org/1999/xlink" xml:space="preserve" style="fill-rule:evenodd;clip-rule:evenodd;stroke-linejoin:round;stroke-miterlimit:1.41421;"><g id="Layer1"><g><path id="path34001" d="M17.406,55.37c0.017,-0.201 0.567,-0.584 1.225,-0.852c0.657,-0.267 3.156,-1.731 5.557,-3.252c2.398,-1.521 6.174,-3.915 8.387,-5.319c12.472,-7.913 28.582,-17.189 34.012,-19.588c1.789,-0.789 4.196,-1.864 5.351,-2.389c5.012,-2.28 9.477,-3.051 11.517,-1.988c1.444,0.75 1.694,1.219 1.848,3.472c0.093,1.361 -0.211,2.618 -1.314,5.475c-1.927,4.976 -2.414,6.611 -1.986,6.647c0.794,0.064 9.808,-3.401 15.346,-5.9c7.756,-3.501 9.721,-4.151 9.644,-3.194c-0.017,0.213 -0.739,0.684 -1.605,1.044c-0.863,0.362 -3.859,1.957 -6.654,3.546c-5.778,3.284 -10.998,5.953 -14.258,7.29c-3.136,1.287 -4.486,2.165 -4.55,2.953c-0.039,0.491 1.899,1.858 6.957,4.904c3.857,2.323 7.486,4.38 8.068,4.57c1.207,0.396 2.47,2.106 2.381,3.223c-0.04,0.477 -0.537,0.916 -1.347,1.184c-1.84,0.614 -3.885,-0.254 -11.205,-4.758c-3.337,-2.053 -6.125,-3.662 -6.194,-3.576c-0.069,0.086 -0.731,1.657 -1.471,3.49c-1.427,3.538 -2.399,4.515 -4.337,4.356c-1.648,-0.135 -1.88,-1.539 -0.974,-5.909c0.82,-3.967 0.787,-4.449 -0.317,-4.541c-1.099,-0.09 -2.634,-1.76 -2.552,-2.775c0.089,-1.1 0.894,-1.725 3.089,-2.398c1.643,-0.505 1.658,-0.528 2.398,-3.383c0.409,-1.582 1.072,-3.919 1.473,-5.193c0.402,-1.273 0.656,-2.405 0.563,-2.514c-0.268,-0.321 -11.302,4.322 -16.199,6.815c-13.752,7.003 -27.287,13.379 -36.061,16.986c-4.74,1.95 -6.861,2.442 -6.792,1.574l0,0Z" style="fill:#9b2335;fill-rule:nonzero;"/><path id="path3411" d="M11.415,75.388c-1.2,-0.626 -2.12,-2.395 -1.982,-3.812c0.097,-1.005 -0.111,-1.532 -0.935,-2.367c-1.046,-1.062 -1.058,-1.129 -0.919,-5.455c0.558,-17.372 2.953,-46.049 4.42,-52.936c0.62,-2.906 0.623,-3.237 0.044,-4.141c-1.17,-1.827 -0.17,-3.999 2.198,-4.771c2.705,-0.882 4.786,-0.906 15.891,-0.185c9.832,0.639 17.258,0.943 22.996,0.944c1.013,0 4.355,0.08 7.426,0.177c9.111,0.288 18.683,-0.042 26.704,-0.92c3.624,-0.396 9.57,-0.835 15.29,-1.127c1.411,-0.072 3.889,0.786 3.836,1.328c-0.016,0.166 -0.965,0.132 -2.109,-0.077c-1.676,-0.306 -3.317,-0.181 -8.439,0.64c-3.497,0.561 -7.796,1.329 -9.554,1.706c-7.297,1.568 -17.291,2.948 -23.512,3.247c-17.81,0.857 -24.804,0.943 -35.572,0.437c-4.032,-0.19 -7.593,-0.289 -7.913,-0.222c-1.31,0.275 -2.82,7.722 -3.769,18.588c-0.757,8.661 -0.862,12.125 -0.639,21.108c0.06,2.436 0.034,7.073 -0.059,10.304c-0.219,7.571 -0.224,9.45 -0.027,9.69c0.163,0.197 4.474,0.162 11.611,-0.093c3.797,-0.136 13.853,-0.1 19.691,0.07c1.616,0.047 8.525,0.553 15.355,1.124c12.93,1.082 13.644,1.195 27.56,4.353c12.081,2.741 14.44,3.336 15.575,3.929l1.17,0.61l0.321,-5.579c0.967,-16.826 1.255,-22.866 1.169,-24.458c-0.089,-1.622 3.666,-42.237 4.006,-43.333c0.137,-0.442 0.46,-0.784 0.718,-0.759c0.608,0.059 0.505,3.504 -0.502,16.704c-0.99,12.983 -1.164,18.959 -0.941,32.309c0.071,4.26 0.094,9.978 0.05,12.708c-0.043,2.729 -0.019,6.77 0.054,8.98c0.146,4.414 -0.083,5.164 -1.719,5.61c-0.771,0.211 -1.361,0.025 -2.926,-0.92c-1.642,-0.993 -2.693,-1.304 -6.49,-1.924c-6.618,-1.081 -28.756,-3.201 -32.832,-3.144c-1.926,0.027 -4.332,0.062 -5.346,0.079c-2.045,0.034 -5.62,0.161 -9.781,0.336c-7.421,0.313 -16.708,0.778 -22.517,1.137c-1.74,0.108 -3.168,0.206 -4.14,0.288c-7.362,0.619 -12.048,0.555 -13.462,-0.183l0,0Z" style="fill:#9b2335;fill-rule:nonzero;"/></g></g></svg>